<svg width="19" height="19" viewBox="0 0 19 19" fill="none" xmlns="http://www.w3.org/2000/svg">
<path d="M9.39125 18.7833C14.52 18.7833 18.7829 14.5294 18.7829 9.39164C18.7829 4.26289 14.5106 0 9.38182 0C4.24443 0 0 4.26289 0 9.39164C0 14.5294 4.25346 18.7833 9.39125 18.7833ZM10.349 6.611L14.1429 10.6346C14.4375 10.9478 14.4375 11.3897 14.1704 11.6569C13.8757 11.97 13.4153 11.979 13.1391 11.6753L9.39125 7.71571L5.64418 11.6749C5.368 11.979 4.90757 11.9696 4.61293 11.6569C4.34579 11.3897 4.34579 10.9478 4.64043 10.6346L8.42482 6.611C9.03257 5.96671 9.75072 5.96671 10.349 6.611Z" fill="#1C253C"/>
</svg>
