<svg width="17" height="21" viewBox="0 0 17 21" fill="none" xmlns="http://www.w3.org/2000/svg">
<path d="M11.568 16.4398C12.624 16.0238 13.564 15.4198 14.388 14.6278C15.212 13.8358 15.848 12.9198 16.296 11.8798C16.76 10.8078 16.992 9.67978 16.992 8.49578C16.992 6.95978 16.608 5.53578 15.84 4.22378C15.088 2.92778 14.072 1.91178 12.792 1.17578C11.464 0.391777 10.032 -0.00022316 8.496 -0.00022316C6.96 -0.00022316 5.528 0.391777 4.2 1.17578C2.92 1.91178 1.904 2.92778 1.152 4.22378C0.384005 5.53578 3.8147e-06 6.95978 3.8147e-06 8.49578C3.8147e-06 9.67978 0.232004 10.8078 0.696005 11.8798C1.144 12.9198 1.78 13.8358 2.604 14.6278C3.428 15.4198 4.368 16.0238 5.424 16.4398L8.088 20.0398C8.12 20.0878 8.16 20.1198 8.208 20.1358C8.32 20.2318 8.444 20.2678 8.58 20.2438C8.716 20.2198 8.824 20.1518 8.904 20.0398L11.568 16.4398ZM8.496 17.2318L6.696 14.7838L6.144 14.5678C4.896 14.0878 3.892 13.2958 3.132 12.1918C2.372 11.0878 1.992 9.85578 1.992 8.49578C1.992 7.32778 2.284 6.24378 2.868 5.24378C3.452 4.24378 4.24 3.45178 5.232 2.86778C6.224 2.28378 7.312 1.99178 8.496 1.99178C9.68 1.99178 10.768 2.28378 11.76 2.86778C12.752 3.45178 13.54 4.24378 14.124 5.24378C14.708 6.24378 15 7.32778 15 8.49578C15 9.85578 14.62 11.0878 13.86 12.1918C13.1 13.2958 12.096 14.0878 10.848 14.5678L10.296 14.7838L8.496 17.2318ZM8.496 11.4958C9.04 11.4958 9.54 11.3638 9.996 11.0998C10.452 10.8358 10.816 10.4718 11.088 10.0078C11.36 9.54378 11.496 9.03978 11.496 8.49578C11.496 7.95178 11.36 7.45178 11.088 6.99578C10.816 6.53978 10.452 6.17578 9.996 5.90378C9.54 5.63178 9.04 5.49578 8.496 5.49578C7.952 5.49578 7.452 5.63178 6.996 5.90378C6.54 6.17578 6.176 6.53978 5.904 6.99578C5.632 7.45178 5.496 7.95178 5.496 8.49578C5.496 9.03978 5.632 9.54378 5.904 10.0078C6.176 10.4718 6.54 10.8358 6.996 11.0998C7.452 11.3638 7.952 11.4958 8.496 11.4958ZM8.496 7.51178C8.768 7.51178 9.004 7.60778 9.204 7.79978C9.404 7.99178 9.504 8.22778 9.504 8.50778C9.504 8.78778 9.404 9.02378 9.204 9.21578C9.004 9.40778 8.768 9.50378 8.496 9.50378C8.224 9.50378 7.988 9.40778 7.788 9.21578C7.588 9.02378 7.488 8.78778 7.488 8.50778C7.488 8.22778 7.588 7.99178 7.788 7.79978C7.988 7.60778 8.224 7.51178 8.496 7.51178Z" fill="#FF3528"/>
</svg>
