<svg width="18" height="18" viewBox="0 0 18 18" fill="none" xmlns="http://www.w3.org/2000/svg">
<path d="M9 18C10.632 18 12.144 17.592 13.536 16.776C14.896 15.976 15.976 14.896 16.776 13.536C17.592 12.144 18 10.632 18 9C18 7.368 17.592 5.856 16.776 4.464C15.976 3.104 14.896 2.024 13.536 1.224C12.144 0.407999 10.632 0 9 0C7.368 0 5.856 0.407999 4.464 1.224C3.104 2.024 2.024 3.104 1.224 4.464C0.407999 5.856 0 7.368 0 9C0 10.632 0.407999 12.144 1.224 13.536C2.024 14.896 3.104 15.976 4.464 16.776C5.856 17.592 7.368 18 9 18ZM9 16.992C7.544 16.992 6.2 16.632 4.968 15.912C3.752 15.208 2.792 14.248 2.088 13.032C1.368 11.8 1.008 10.456 1.008 9C1.008 7.544 1.368 6.2 2.088 4.968C2.792 3.752 3.752 2.792 4.968 2.088C6.2 1.368 7.544 1.008 9 1.008C10.456 1.008 11.8 1.368 13.032 2.088C14.248 2.792 15.208 3.752 15.912 4.968C16.632 6.2 16.992 7.544 16.992 9C16.992 10.456 16.632 11.8 15.912 13.032C15.208 14.248 14.248 15.208 13.032 15.912C11.8 16.632 10.456 16.992 9 16.992ZM9 15.24C10.136 15.24 11.18 14.96 12.132 14.4C13.084 13.84 13.84 13.084 14.4 12.132C14.96 11.18 15.24 10.136 15.24 9C15.24 7.864 14.96 6.82 14.4 5.868C13.84 4.916 13.084 4.16 12.132 3.6C11.18 3.04 10.136 2.76 9 2.76C7.864 2.76 6.82 3.04 5.868 3.6C4.916 4.16 4.16 4.916 3.6 5.868C3.04 6.82 2.76 7.864 2.76 9C2.76 10.136 3.04 11.18 3.6 12.132C4.16 13.084 4.916 13.84 5.868 14.4C6.82 14.96 7.864 15.24 9 15.24ZM9 12.744C8.328 12.744 7.704 12.576 7.128 12.24C6.552 11.904 6.096 11.448 5.76 10.872C5.424 10.296 5.256 9.672 5.256 9C5.256 8.328 5.424 7.704 5.76 7.128C6.096 6.552 6.552 6.096 7.128 5.76C7.704 5.424 8.328 5.256 9 5.256C9.672 5.256 10.296 5.424 10.872 5.76C11.448 6.096 11.904 6.552 12.24 7.128C12.576 7.704 12.744 8.328 12.744 9C12.744 9.672 12.576 10.296 12.24 10.872C11.904 11.448 11.448 11.904 10.872 12.24C10.296 12.576 9.672 12.744 9 12.744Z" fill="#00A4EB"/>
</svg>
