<?xml version="1.0" standalone="no"?>
<!DOCTYPE svg PUBLIC "-//W3C//DTD SVG 20010904//EN"
 "http://www.w3.org/TR/2001/REC-SVG-20010904/DTD/svg10.dtd">
<svg version="1.0" xmlns="http://www.w3.org/2000/svg"
 width="582.000000pt" height="582.000000pt" viewBox="0 0 582.000000 582.000000"
 preserveAspectRatio="xMidYMid meet">
<g transform="translate(0.000000,582.000000) scale(0.100000,-0.100000)"
fill="#000000" stroke="none">
<path d="M304 5731 c-45 -21 -85 -67 -103 -120 -8 -24 -11 -297 -11 -972 l0
-939 335 0 335 0 0 510 0 510 2320 0 2320 0 0 335 0 335 -2314 0 c-2002 0
-2315 -2 -2326 -14 -9 -12 -6 -16 22 -21 18 -3 1059 -4 2313 -3 l2280 3 -7
-149 c-4 -81 -4 -213 0 -291 4 -87 3 -141 -2 -137 -5 3 -7 -2 -3 -11 6 -16
-152 -17 -2291 -17 -1935 -1 -2301 -3 -2322 -15 -17 -9 -29 -10 -37 -4 -11 9
-11 6 -4 -30 1 -2 7 1 14 7 9 8 11 -88 9 -476 -1 -268 -4 -493 -7 -500 -3 -7
-9 -11 -14 -8 -4 3 -138 6 -297 6 l-289 1 2 924 c1 509 5 930 9 936 4 8 3 9
-4 5 -17 -10 -15 -2 7 38 11 19 17 38 13 42 -4 5 0 3 8 -3 11 -8 20 -9 30 -1
12 8 12 9 -2 4 -10 -3 -18 -1 -18 4 0 10 14 14 39 11 7 -2 10 2 7 7 -3 5 9 13
27 16 32 7 478 8 485 1 2 -1 6 -78 8 -169 4 -127 2 -166 -7 -166 -7 0 -10 -2
-7 -5 3 -3 13 -3 22 1 14 5 16 29 16 190 l0 184 -257 0 c-230 0 -262 -2 -299
-19z"/>
<path d="M803 4763 c0 -7 3 -11 5 -8 3 3 12 -1 21 -8 14 -10 14 -10 4 4 -7 9
-11 18 -8 21 3 2 -1 5 -8 5 -8 0 -14 -6 -14 -14z"/>
<path d="M856 4771 c-4 -5 -2 -12 3 -15 5 -4 12 -2 15 3 4 5 2 12 -3 15 -5 4
-12 2 -15 -3z"/>
<path d="M2605 4205 c-677 -108 -1192 -659 -1255 -1346 -26 -277 29 -559 156
-808 306 -598 960 -918 1618 -791 452 88 843 386 1051 800 63 125 119 300 140
435 25 158 16 418 -19 567 -102 435 -393 805 -791 1003 -221 110 -422 156
-673 154 -81 -1 -183 -7 -227 -14z m354 -24 c6 -10 10 -10 13 -1 3 9 20 9 73
0 39 -6 80 -11 93 -10 15 0 21 -4 16 -12 -4 -6 -3 -8 4 -4 13 8 133 -24 127
-35 -3 -4 4 -5 15 -2 21 6 99 -23 111 -41 4 -4 12 -5 19 -1 9 6 11 4 6 -4 -5
-8 -3 -11 5 -10 8 2 30 -6 49 -16 19 -11 37 -19 40 -20 13 -1 70 -40 70 -48 0
-4 3 -6 8 -3 4 2 18 -2 32 -11 24 -13 24 -14 2 -10 -12 3 -20 1 -16 -4 3 -5
16 -9 29 -9 22 0 60 -27 130 -92 16 -16 33 -28 38 -28 8 0 30 -46 36 -76 0 -4
8 -1 16 6 9 8 15 8 15 2 0 -6 9 -14 20 -17 11 -4 18 -11 15 -16 -4 -5 1 -9 10
-9 9 0 14 -4 11 -9 -3 -5 1 -12 10 -15 8 -3 12 -10 9 -16 -3 -5 -1 -10 5 -10
11 0 57 -70 53 -82 -2 -4 5 -4 14 -1 11 4 14 3 9 -5 -4 -7 -2 -12 4 -12 6 0 9
-4 5 -9 -3 -5 -1 -12 5 -16 6 -4 7 -11 4 -17 -4 -6 -3 -8 3 -5 5 3 17 -2 25
-12 12 -14 13 -22 5 -31 -9 -9 -9 -11 2 -8 18 4 72 -104 74 -149 2 -34 11 -43
21 -20 3 6 3 1 0 -13 -4 -14 -3 -22 1 -18 11 10 34 -36 41 -83 4 -21 11 -36
16 -33 6 4 6 -2 -1 -13 -6 -13 -7 -23 0 -30 5 -5 17 -40 26 -79 27 -117 20
-626 -9 -608 -6 4 -8 1 -6 -7 3 -8 -2 -22 -10 -32 -14 -16 -14 -17 0 -12 12 5
14 1 11 -19 -3 -14 -10 -23 -15 -19 -6 3 -8 0 -6 -8 3 -8 -1 -32 -9 -54 -8
-22 -16 -48 -18 -57 -2 -10 -16 -39 -32 -65 -15 -26 -27 -49 -25 -50 5 -6 -31
-83 -40 -83 -5 0 -7 -4 -4 -9 3 -5 -2 -15 -12 -22 -15 -12 -16 -12 -4 2 10 14
9 19 -5 30 -16 12 -17 12 -6 -2 7 -9 9 -19 5 -23 -4 -4 -7 -15 -7 -24 -1 -31
-35 -71 -57 -67 -14 3 -17 1 -10 -8 12 -15 -20 -73 -38 -69 -7 2 -10 -3 -7
-11 2 -7 -1 -21 -9 -32 -8 -10 -14 -13 -14 -7 0 7 -5 12 -11 12 -5 0 -7 -5 -4
-10 9 -14 -14 -42 -28 -33 -6 4 -8 0 -4 -9 6 -17 -15 -40 -45 -51 -10 -4 -18
-13 -18 -21 0 -8 -5 -18 -12 -22 -7 -4 -8 -3 -4 4 5 8 2 10 -8 6 -10 -4 -16
-1 -16 7 0 7 -3 9 -6 6 -4 -4 -1 -13 6 -22 9 -11 9 -15 1 -15 -7 0 -9 -4 -6
-10 3 -5 0 -10 -8 -10 -8 0 -20 -7 -27 -15 -7 -8 -17 -12 -23 -8 -6 3 -7 1 -3
-5 4 -6 -5 -17 -21 -26 -16 -7 -36 -23 -46 -34 -11 -12 -28 -19 -47 -17 -16 1
-27 -1 -24 -6 3 -5 10 -7 15 -4 5 4 9 4 9 2 0 -12 -109 -70 -130 -69 -20 2
-22 0 -10 -9 12 -8 9 -10 -12 -6 -21 3 -25 1 -20 -12 3 -9 2 -13 -2 -9 -4 3
-32 -5 -62 -18 -31 -13 -63 -26 -72 -27 -9 -2 -27 -8 -39 -15 -14 -8 -24 -9
-28 -2 -3 5 -11 10 -16 10 -6 0 -7 -5 -4 -10 6 -11 -44 -34 -53 -25 -3 3 1 5
8 5 7 0 11 2 8 5 -9 9 -38 -7 -32 -17 4 -6 -1 -6 -13 1 -11 5 -24 6 -29 2 -13
-12 -177 -31 -270 -31 -72 0 -180 10 -274 26 -19 3 -46 6 -59 6 -18 0 -21 2
-10 9 11 8 10 10 -6 8 -34 -2 -41 1 -25 12 13 9 12 10 -2 5 -10 -3 -25 -9 -35
-13 -11 -4 -14 -3 -9 5 5 8 -1 12 -18 12 -31 0 -78 18 -88 33 -6 9 -8 8 -8 -2
0 -11 -3 -11 -16 0 -9 7 -25 14 -36 14 -12 1 -26 9 -32 17 -6 9 -26 19 -44 23
-19 4 -30 11 -26 17 4 7 2 8 -5 4 -14 -9 -43 12 -35 25 3 5 0 9 -6 9 -6 0 -8
5 -4 12 4 7 3 8 -4 4 -6 -4 -8 -14 -5 -23 5 -13 1 -12 -17 4 -12 12 -27 20
-31 17 -4 -2 -11 0 -14 6 -4 6 -25 22 -47 36 -22 14 -37 28 -33 32 3 4 10 0
15 -8 7 -11 10 -12 10 -2 0 8 5 10 13 6 8 -6 8 -3 -2 9 -10 13 -18 14 -32 6
-20 -10 -49 7 -49 30 0 5 -5 13 -12 17 -7 5 -8 3 -3 -6 5 -8 3 -11 -6 -8 -8 3
-13 12 -13 21 1 9 -2 15 -6 12 -12 -7 -41 6 -35 15 3 5 1 11 -5 15 -6 4 -8 10
-6 14 3 4 -4 12 -15 19 -10 7 -19 8 -19 3 0 -5 6 -12 13 -14 9 -4 9 -6 0 -6
-7 -1 -18 9 -24 22 -6 12 -19 29 -28 38 -54 54 -90 99 -79 100 7 0 2 5 -11 10
-18 7 -21 12 -12 23 11 14 5 26 -13 26 -6 0 -4 -5 4 -10 8 -5 10 -10 4 -10
-11 0 -42 39 -40 50 0 3 -9 19 -21 36 -19 27 -83 143 -83 152 0 2 6 0 13 -3 6
-4 5 -1 -3 7 -9 7 -14 22 -12 33 2 13 0 16 -5 8 -6 -9 -12 -3 -20 17 -8 22 -8
30 0 30 6 0 4 6 -5 13 -19 15 -55 133 -62 201 -2 27 -9 52 -14 55 -13 8 -17
87 -16 289 0 138 4 176 15 183 12 7 12 9 -1 9 -12 0 -13 2 -1 9 7 5 10 14 7
20 -4 6 -1 11 6 11 9 0 9 3 -2 10 -9 6 -11 10 -3 10 7 0 10 7 7 15 -3 8 1 29
10 46 18 37 21 51 5 29 -9 -12 -10 -12 -5 3 3 10 6 23 6 28 0 6 5 7 12 3 6 -4
8 -3 5 3 -4 6 4 41 18 79 13 38 25 60 25 49 1 -16 3 -15 9 6 5 14 14 36 20 50
11 23 11 23 -3 5 -9 -11 -16 -15 -16 -9 0 7 4 15 10 18 5 3 20 28 32 55 19 42
26 49 46 45 20 -3 22 -2 12 11 -15 17 -24 19 -14 2 4 -7 3 -8 -5 -4 -15 9 -3
29 13 23 9 -4 11 2 8 19 -3 16 1 26 12 30 9 3 13 10 10 16 -6 9 33 58 47 58 4
0 5 -10 3 -22 -4 -21 -4 -21 5 -3 5 11 5 24 1 29 -5 4 2 19 13 33 12 13 23 29
23 34 1 5 2 12 3 15 0 4 8 1 16 -6 19 -16 32 -6 30 21 -1 13 6 31 14 42 18 21
57 45 47 29 -3 -6 -1 -14 6 -18 7 -4 10 -4 6 1 -4 4 -3 17 3 28 9 15 8 18 -3
12 -7 -5 -4 1 7 12 11 12 24 20 30 19 5 0 9 5 10 13 0 8 7 15 16 16 9 2 28 15
42 29 14 14 31 26 37 26 6 0 9 4 6 9 -3 5 2 11 12 15 9 3 35 17 57 31 22 14
51 31 65 38 14 6 31 19 38 27 8 8 11 9 7 3 -3 -8 6 -6 24 5 17 9 31 21 31 25
0 5 4 5 10 2 5 -3 21 2 35 11 14 9 28 14 32 11 3 -3 12 0 19 8 8 7 24 11 36 8
16 -3 19 -2 10 5 -9 6 11 14 65 27 43 10 111 26 151 36 41 10 79 16 86 13 7
-3 22 -1 35 4 38 14 261 8 270 -7z m916 -409 c-3 -3 -11 0 -18 7 -9 10 -8 11
6 5 10 -3 15 -9 12 -12z m-2130 -82 c3 -5 1 -10 -4 -10 -6 0 -11 5 -11 10 0 6
2 10 4 10 3 0 8 -4 11 -10z"/>
<path d="M3078 4163 c7 -3 16 -2 19 1 4 3 -2 6 -13 5 -11 0 -14 -3 -6 -6z"/>
<path d="M3068 4143 c7 -3 16 -2 19 1 4 3 -2 6 -13 5 -11 0 -14 -3 -6 -6z"/>
<path d="M2338 4083 c7 -3 16 -2 19 1 4 3 -2 6 -13 5 -11 0 -14 -3 -6 -6z"/>
<path d="M3533 4013 c4 -3 1 -13 -6 -22 -11 -14 -10 -14 5 -2 16 12 16 31 1
31 -4 0 -3 -3 0 -7z"/>
<path d="M2117 3989 c7 -7 15 -10 18 -7 3 3 -2 9 -12 12 -14 6 -15 5 -6 -5z"/>
<path d="M3680 3912 c0 -5 7 -9 15 -9 8 0 12 4 9 9 -3 4 -9 8 -15 8 -5 0 -9
-4 -9 -8z"/>
<path d="M2750 3666 c-3 -3 -35 -8 -70 -11 -35 -3 -67 -9 -70 -13 -3 -4 -14
-8 -25 -10 -57 -8 -68 -10 -74 -18 -7 -10 -69 -35 -88 -37 -7 0 -9 -5 -6 -10
4 -6 0 -8 -10 -4 -11 4 -18 -1 -23 -15 -5 -16 -8 -18 -15 -7 -7 12 -9 12 -9 0
0 -8 -6 -11 -16 -7 -8 3 -13 2 -10 -3 3 -4 -6 -14 -19 -21 -13 -7 -22 -16 -20
-20 2 -4 -7 -6 -20 -4 -14 1 -23 -2 -19 -7 3 -5 0 -9 -6 -9 -6 0 -8 -4 -5 -10
3 -5 2 -10 -3 -10 -12 0 -112 -100 -112 -112 0 -5 -5 -6 -10 -3 -6 4 -9 1 -8
-6 2 -7 -3 -13 -11 -14 -8 0 -16 -7 -18 -15 -4 -13 -3 -13 6 0 7 9 11 11 11 3
0 -7 -6 -16 -12 -20 -7 -4 -18 -17 -25 -28 -6 -11 -16 -19 -23 -17 -6 1 -9 -2
-5 -8 3 -5 2 -10 -3 -10 -6 0 -13 -7 -16 -16 -4 -10 -2 -13 7 -8 6 4 4 -2 -5
-13 -10 -11 -18 -23 -18 -26 0 -4 -11 -30 -25 -58 -13 -29 -22 -56 -18 -62 3
-6 1 -7 -5 -3 -7 4 -12 4 -13 -1 -2 -20 -8 -54 -23 -128 -21 -103 -20 -259 0
-355 9 -41 17 -83 18 -92 0 -10 4 -18 9 -18 4 0 7 -6 5 -12 -3 -19 12 -58 23
-58 5 0 9 -5 9 -11 0 -5 -5 -7 -12 -3 -7 4 -8 3 -4 -5 4 -6 12 -9 17 -6 5 4 9
-1 9 -9 0 -25 1 -30 13 -51 6 -11 10 -24 8 -30 -1 -5 0 -7 4 -3 7 6 75 -86 75
-101 0 -3 9 -12 20 -19 14 -8 19 -20 16 -37 -3 -18 -1 -22 10 -18 16 6 46 -15
39 -27 -3 -5 0 -12 6 -16 8 -4 9 -3 5 4 -4 7 -2 12 3 12 6 0 11 -5 11 -11 0
-5 4 -8 9 -5 5 4 8 -2 7 -11 -2 -12 10 -24 33 -36 62 -30 81 -44 75 -50 -10
-9 16 -38 27 -31 13 8 100 -27 93 -37 -3 -5 4 -9 15 -9 11 0 25 -8 30 -17 6
-11 11 -13 11 -5 0 10 4 10 23 0 12 -6 31 -13 42 -14 11 -1 54 -10 95 -19 104
-23 272 -21 380 4 47 10 89 16 94 13 5 -3 6 1 1 8 -5 8 -3 11 6 8 8 -3 23 2
33 11 18 15 19 15 13 -4 -6 -17 -5 -17 9 2 9 13 23 23 30 23 8 0 14 4 14 10 0
5 6 7 13 4 7 -2 21 4 31 15 10 11 23 18 27 15 5 -3 9 0 9 7 0 8 4 8 15 -1 8
-7 16 -10 16 -6 1 3 2 10 3 15 2 13 63 61 70 54 3 -3 6 -1 6 6 0 8 6 11 16 7
14 -5 15 -4 5 8 -16 19 1 31 45 35 8 0 13 5 9 10 -3 5 -1 12 5 16 6 4 7 11 4
17 -4 6 1 8 15 3 13 -4 21 -2 21 5 0 6 -4 8 -10 5 -21 -13 -9 8 21 36 17 16
28 29 25 29 -3 0 6 14 21 31 16 17 28 36 28 42 0 7 9 11 20 10 11 -1 15 0 9 3
-7 3 -10 14 -7 24 3 11 10 17 16 13 5 -3 8 -2 4 3 -3 5 8 36 23 68 16 33 27
62 25 66 -3 4 2 13 9 19 8 7 13 23 11 36 -1 14 2 22 7 19 5 -3 8 0 7 7 -2 8 3
61 11 117 11 86 11 121 1 205 -8 56 -14 114 -15 129 0 14 -5 24 -10 21 -5 -4
-7 3 -4 15 4 13 -1 30 -13 44 -11 12 -19 31 -17 42 2 11 -7 31 -19 45 -13 13
-20 28 -17 33 3 5 1 14 -4 21 -6 7 -12 17 -14 22 -1 6 -6 9 -10 8 -4 -2 -4 5
-1 14 4 10 2 14 -4 10 -6 -4 -14 0 -17 9 -4 10 -2 13 7 8 6 -4 1 4 -13 18 -14
13 -29 22 -34 20 -5 -3 -6 0 -2 7 4 6 -9 28 -33 51 -22 22 -38 40 -35 40 8 0
-16 22 -58 54 -25 19 -35 33 -33 47 2 11 0 17 -6 14 -5 -4 -7 -11 -4 -16 3 -5
-1 -6 -9 -3 -9 3 -13 11 -9 17 3 5 1 7 -4 4 -6 -4 -16 0 -23 8 -7 8 -16 15
-21 15 -5 0 -18 8 -29 17 -15 14 -17 20 -7 32 10 14 9 13 -8 0 -21 -17 -50
-15 -39 3 3 5 0 8 -7 7 -8 -1 -27 3 -42 9 -16 7 -33 12 -39 12 -5 0 -8 7 -4
15 3 8 -3 19 -14 25 -29 16 -38 11 -10 -6 25 -15 25 -15 -9 -8 -49 9 -54 10
-71 17 -8 3 -22 6 -30 6 -8 0 -31 3 -50 6 -53 9 -234 18 -240 11z m250 -40
c283 -51 535 -242 660 -501 69 -143 85 -217 84 -400 0 -144 -3 -169 -27 -248
-101 -331 -362 -573 -692 -644 -93 -20 -290 -20 -377 1 -359 84 -628 355 -704
709 -24 114 -20 291 9 408 81 314 323 565 632 654 122 36 286 44 415 21z"/>
<path d="M2385 3450 c-4 -6 -11 -7 -17 -4 -7 4 -8 2 -4 -5 6 -9 11 -9 22 0 14
11 18 19 10 19 -3 0 -8 -5 -11 -10z"/>
<path d="M2950 3096 c0 -2 7 -7 16 -10 8 -3 12 -2 9 4 -6 10 -25 14 -25 6z"/>
<path d="M2723 3030 c-70 -28 -142 -96 -178 -167 -26 -51 -30 -69 -30 -143 0
-109 26 -169 101 -240 75 -71 130 -93 229 -94 96 -1 169 28 234 93 93 93 126
235 81 353 -26 71 -92 145 -162 183 -72 39 -196 46 -275 15z m227 -24 c19 -9
28 -10 23 -3 -4 7 8 0 26 -16 18 -15 38 -24 43 -21 7 4 8 2 4 -5 -4 -6 -11 -9
-16 -6 -5 3 -12 0 -16 -7 -4 -7 -4 -10 1 -6 4 4 15 2 23 -5 13 -9 14 -9 8 1
-4 6 -2 12 3 12 10 0 15 -14 12 -32 0 -4 6 -5 14 -2 20 8 19 -6 -2 -23 -16
-13 -16 -13 4 -4 23 12 35 3 40 -29 1 -8 7 -16 12 -18 8 -3 7 -10 0 -24 -8
-15 -8 -23 1 -32 8 -8 9 -6 4 8 -5 14 -4 17 5 11 8 -4 11 -20 9 -37 -3 -16 -1
-31 4 -34 5 -3 3 -13 -4 -22 -9 -10 -10 -16 -2 -19 15 -5 6 -53 -15 -77 -12
-14 -12 -17 -2 -11 19 11 -26 -64 -53 -87 -10 -10 -15 -18 -11 -18 4 0 -11
-13 -33 -30 -42 -30 -58 -37 -48 -22 3 5 -1 9 -8 9 -8 0 -12 -7 -8 -15 4 -12
0 -14 -16 -10 -12 4 -20 2 -17 -2 12 -20 -130 -26 -154 -7 -11 9 -13 9 -8 0 5
-7 0 -9 -13 -6 -11 3 -20 9 -20 13 0 4 -8 7 -17 6 -10 0 -17 4 -16 10 1 6 -4
11 -10 11 -20 0 -67 34 -61 44 3 5 0 8 -8 7 -7 -2 -12 5 -12 14 1 10 -3 16 -9
15 -13 -3 -48 55 -50 82 -1 12 -5 21 -9 21 -4 0 -5 6 -2 14 3 8 0 25 -7 38
-11 21 -11 22 4 9 21 -17 22 -8 1 13 -14 14 -14 19 0 46 8 17 10 28 5 25 -11
-7 -12 8 -1 19 4 4 7 11 8 14 0 4 4 19 8 34 7 24 11 26 28 17 13 -7 18 -7 14
-1 -3 6 -2 13 4 17 5 3 15 15 21 27 8 15 8 19 0 14 -6 -4 -11 -3 -11 3 0 8 32
24 52 26 3 0 10 4 15 9 5 5 3 6 -4 2 -7 -4 -13 -3 -13 2 0 9 52 34 103 49 42
12 143 6 177 -11z m-343 -113 c-10 -10 -17 -12 -17 -6 0 7 5 15 10 18 6 4 7
12 4 18 -5 8 -2 8 7 -1 11 -10 10 -15 -4 -29z"/>
<path d="M2200 2136 c0 -2 8 -10 18 -17 15 -13 16 -12 3 4 -13 16 -21 21 -21
13z"/>
<path d="M1631 3563 c-7 -8 -11 -16 -8 -19 2 -2 10 2 17 11 17 20 9 27 -9 8z"/>
<path d="M2325 3570 c-3 -6 1 -7 9 -4 18 7 21 14 7 14 -6 0 -13 -4 -16 -10z"/>
<path d="M3343 3565 c0 -8 4 -12 9 -9 5 3 6 10 3 15 -9 13 -12 11 -12 -6z"/>
<path d="M4020 3551 c0 -6 4 -13 10 -16 6 -3 7 1 4 9 -7 18 -14 21 -14 7z"/>
<path d="M1639 3533 c-13 -16 -12 -17 4 -4 16 13 21 21 13 21 -2 0 -10 -8 -17
-17z"/>
<path d="M4010 3521 c0 -6 4 -13 10 -16 6 -3 7 1 4 9 -7 18 -14 21 -14 7z"/>
<path d="M4089 3433 c-13 -16 -12 -17 4 -4 16 13 21 21 13 21 -2 0 -10 -8 -17
-17z"/>
<path d="M1926 3092 c-2 -4 4 -8 14 -8 10 0 16 4 14 8 -3 4 -9 8 -14 8 -5 0
-11 -4 -14 -8z"/>
<path d="M4241 2524 c0 -11 3 -14 6 -6 3 7 2 16 -1 19 -3 4 -6 -2 -5 -13z"/>
<path d="M1426 2457 c3 -10 9 -15 12 -12 3 3 0 11 -7 18 -10 9 -11 8 -5 -6z"/>
<path d="M1946 2327 c3 -10 9 -15 12 -12 3 3 0 11 -7 18 -10 9 -11 8 -5 -6z"/>
<path d="M4170 2206 c0 -2 8 -10 18 -17 15 -13 16 -12 3 4 -13 16 -21 21 -21
13z"/>
<path d="M4166 2177 c3 -10 9 -15 12 -12 3 3 0 11 -7 18 -10 9 -11 8 -5 -6z"/>
<path d="M2099 2118 c-5 -18 -6 -38 -1 -34 7 8 12 36 6 36 -2 0 -4 -1 -5 -2z"/>
<path d="M4125 2049 c-4 -6 -5 -12 -2 -15 2 -3 7 2 10 11 7 17 1 20 -8 4z"/>
<path d="M4080 2045 c0 -2 6 -8 13 -14 10 -8 14 -7 14 2 0 8 -6 14 -14 14 -7
0 -13 -1 -13 -2z"/>
<path d="M2174 2015 c-13 -11 -15 -15 -4 -13 8 2 14 -3 12 -10 -1 -8 2 -11 8
-7 6 3 8 10 5 15 -3 4 0 10 7 12 8 3 9 6 1 11 -5 3 -19 0 -29 -8z"/>
<path d="M3455 2020 c-3 -5 -1 -10 4 -10 6 0 11 5 11 10 0 6 -2 10 -4 10 -3 0
-8 -4 -11 -10z"/>
<path d="M3943 1807 c0 -8 6 -14 14 -14 9 0 10 4 2 14 -6 7 -12 13 -14 13 -1
0 -2 -6 -2 -13z"/>
<path d="M3876 1704 c-5 -14 -4 -15 9 -4 17 14 19 20 6 20 -5 0 -12 -7 -15
-16z"/>
<path d="M2244 1412 c3 -6 0 -12 -6 -15 -7 -2 -1 -4 14 -3 34 1 34 2 7 17 -13
6 -19 7 -15 1z"/>
<path d="M3363 1405 c0 -8 4 -12 9 -9 5 3 6 10 3 15 -9 13 -12 11 -12 -6z"/>
<path d="M3407 1399 c7 -7 15 -10 18 -7 3 3 -2 9 -12 12 -14 6 -15 5 -6 -5z"/>
<path d="M3380 1380 c-9 -6 -10 -10 -3 -10 6 0 15 5 18 10 8 12 4 12 -15 0z"/>
<path d="M2530 1336 c0 -2 7 -7 16 -10 8 -3 12 -2 9 4 -6 10 -25 14 -25 6z"/>
<path d="M3505 4121 c-3 -5 -2 -12 3 -15 5 -3 9 1 9 9 0 17 -3 19 -12 6z"/>
<path d="M3896 3882 c-3 -5 1 -9 9 -9 8 0 12 4 9 9 -3 4 -7 8 -9 8 -2 0 -6 -4
-9 -8z"/>
<path d="M1705 3811 c-3 -5 -2 -12 3 -15 5 -3 9 1 9 9 0 17 -3 19 -12 6z"/>
<path d="M1649 3703 c-13 -16 -12 -17 4 -4 9 7 17 15 17 17 0 8 -8 3 -21 -13z"/>
<path d="M4130 3575 c0 -2 6 -8 13 -14 10 -8 14 -7 14 2 0 8 -6 14 -14 14 -7
0 -13 -1 -13 -2z"/>
<path d="M184 2608 c20 -327 78 -590 193 -878 302 -753 948 -1333 1734 -1559
257 -74 426 -96 734 -96 265 1 369 11 585 60 846 190 1567 809 1884 1617 110
280 185 654 186 926 l0 42 -335 0 c-312 0 -335 -1 -335 -17 0 -10 -5 -71 -10
-137 -50 -604 -370 -1148 -873 -1487 -791 -532 -1844 -428 -2517 250 -330 332
-529 766 -570 1241 -5 63 -10 123 -10 133 0 16 -23 17 -336 17 l-337 0 7 -112z
m643 32 c8 -135 15 -217 19 -230 3 -8 5 -16 5 -17 1 -2 8 -31 16 -65 14 -59
19 -84 26 -133 2 -12 7 -26 11 -33 4 -7 4 -17 0 -24 -4 -6 -3 -8 3 -5 6 4 13
-2 16 -13 3 -11 1 -18 -4 -14 -13 8 -11 -2 4 -18 14 -15 49 -105 50 -130 1 -9
6 -14 11 -11 5 4 7 -1 3 -10 -4 -10 -10 -25 -13 -34 -5 -16 -4 -16 6 0 11 18
12 18 26 -1 7 -11 18 -31 23 -46 9 -21 8 -24 -6 -19 -13 5 -13 2 3 -14 10 -11
24 -18 29 -15 6 3 7 1 2 -3 -4 -5 1 -17 10 -28 15 -17 15 -19 2 -15 -9 4 -16
1 -16 -7 0 -7 7 -10 16 -8 11 3 22 -10 36 -41 11 -24 24 -42 29 -39 5 4 6 2 3
-4 -3 -5 15 -36 40 -67 25 -32 39 -55 32 -51 -8 4 -3 -3 11 -15 14 -12 20 -19
13 -16 -6 4 -15 1 -19 -5 -4 -8 -3 -9 4 -5 12 7 69 -51 64 -66 -2 -6 4 -8 13
-5 8 4 15 2 15 -3 0 -5 8 -17 18 -27 47 -48 74 -82 75 -94 4 -26 17 -38 37
-34 18 3 25 -6 21 -28 -1 -5 2 -6 7 -3 5 3 20 -5 33 -17 13 -12 27 -21 31 -19
5 1 7 -1 6 -5 -2 -5 0 -9 4 -11 14 -5 63 -57 60 -64 -1 -4 5 -5 13 -2 8 4 15
1 15 -5 0 -6 13 -17 30 -26 18 -9 27 -21 24 -29 -3 -8 0 -17 5 -21 6 -3 8 -12
4 -18 -4 -7 0 -6 10 2 17 13 14 36 -4 26 -5 -4 -9 -1 -9 4 0 20 25 11 58 -20
17 -16 32 -27 32 -23 0 4 7 -1 16 -12 8 -10 12 -13 9 -6 -6 11 -3 11 14 1 15
-10 17 -16 8 -22 -8 -6 -5 -7 9 -4 13 3 25 -3 33 -14 6 -11 17 -19 24 -19 8 0
7 4 -3 10 -8 5 -10 10 -4 10 6 0 17 -7 24 -15 7 -8 19 -15 27 -15 8 0 11 -4 8
-10 -3 -6 1 -7 9 -4 9 3 16 1 16 -5 0 -6 12 -11 28 -12 15 0 21 -3 15 -6 -7
-2 -13 -9 -13 -14 0 -6 10 -5 23 2 12 6 19 8 15 4 -7 -8 92 -47 120 -48 7 0
11 -5 9 -12 -5 -10 10 -14 60 -16 13 -1 21 -4 19 -8 -2 -3 6 -7 17 -8 26 -3
37 -5 97 -23 41 -12 86 -19 133 -21 9 0 17 -5 17 -11 0 -6 10 -8 25 -4 14 4
25 3 25 -1 0 -9 5 -10 235 -15 99 -2 215 1 257 7 42 6 74 7 71 2 -6 -11 39 2
47 13 3 4 12 8 20 8 57 6 95 13 132 23 53 15 66 18 99 23 14 2 46 13 70 24 24
11 71 29 104 41 33 11 56 21 50 21 -5 0 -3 4 5 10 9 6 17 5 22 -3 6 -9 8 -9 8
1 0 6 7 12 15 12 8 0 15 4 15 9 0 5 10 13 23 17 12 3 31 14 41 23 16 13 18 13
11 1 -6 -12 -5 -13 6 -2 16 14 33 16 24 2 -3 -6 1 -7 10 -3 12 4 13 8 5 13 -8
5 -1 15 21 31 19 13 29 17 25 8 -4 -7 1 -5 11 7 10 11 25 18 33 16 8 -3 12 -1
8 3 -4 4 0 14 9 20 14 11 19 10 28 -2 10 -13 13 -13 25 2 7 9 9 15 4 14 -29
-5 -24 4 14 27 23 14 42 30 42 36 0 5 7 8 15 4 8 -3 14 -2 12 2 -1 4 30 34 68
67 39 33 76 65 83 72 8 7 18 11 23 8 5 -4 6 2 2 11 -4 12 -3 15 6 10 14 -9 43
12 35 25 -7 12 21 40 31 31 5 -4 5 -1 1 6 -4 7 6 25 26 45 19 17 51 56 72 85
21 28 42 52 47 52 6 0 8 4 4 9 -7 13 45 53 62 47 7 -3 15 -1 18 5 4 5 1 8 -6
7 -6 -2 -14 3 -17 11 -3 9 0 11 8 6 8 -5 11 -4 6 3 -7 11 42 112 55 112 4 0
10 7 13 16 4 9 2 13 -6 8 -14 -9 21 51 44 76 19 21 24 35 8 25 -5 -3 1 16 15
42 33 67 50 109 71 175 9 31 20 55 23 53 3 -2 7 9 7 23 1 15 9 52 17 82 8 30
21 83 27 117 7 35 15 61 19 59 3 -3 5 29 3 70 -3 52 -1 74 8 74 7 0 9 8 5 20
-3 11 -3 40 0 64 l7 44 301 -2 302 -1 -1 -90 c0 -85 -8 -157 -20 -199 -5 -13
-3 -16 6 -11 8 5 11 4 6 -3 -5 -9 -29 -128 -41 -202 -2 -14 -9 -45 -15 -70 -7
-25 -14 -54 -16 -65 -16 -91 -131 -388 -171 -445 -14 -18 -14 -22 -3 -15 13 8
13 5 -1 -15 -16 -25 -42 -71 -45 -80 -1 -3 -5 -15 -9 -27 -4 -13 -11 -23 -14
-23 -10 0 -7 31 3 50 7 12 6 13 -4 3 -7 -7 -14 -28 -16 -48 -1 -20 -10 -45
-20 -56 -9 -10 -13 -19 -8 -19 5 0 5 -4 -1 -8 -5 -4 -18 -23 -28 -43 -11 -20
-32 -51 -48 -68 -15 -17 -28 -35 -29 -39 0 -4 -21 -35 -46 -70 -35 -48 -49
-60 -56 -50 -8 10 -9 9 -4 -4 3 -10 -4 -28 -15 -40 -10 -13 -35 -41 -54 -63
-19 -22 -35 -43 -35 -47 0 -4 -7 -5 -15 -2 -8 4 -15 1 -15 -5 0 -18 -62 -81
-73 -74 -6 3 -7 2 -4 -4 4 -6 -1 -19 -9 -29 -9 -10 -12 -12 -9 -4 4 8 -5 0
-20 -18 -16 -20 -33 -31 -42 -28 -8 3 -12 2 -9 -3 9 -14 -87 -101 -112 -101
-15 0 -15 -2 -2 -10 12 -8 10 -10 -8 -10 -13 0 -20 -4 -17 -10 3 -5 0 -10 -8
-10 -8 0 -25 -11 -39 -24 -13 -14 -30 -26 -37 -28 -8 -2 -25 -13 -39 -26 -14
-12 -32 -20 -40 -17 -10 4 -12 0 -8 -10 3 -9 2 -13 -4 -10 -6 3 -10 3 -10 -2
0 -14 -60 -44 -61 -30 0 7 -4 2 -9 -10 -7 -16 -14 -21 -27 -16 -10 3 -15 2
-11 -2 8 -9 -15 -25 -74 -51 -21 -10 -38 -21 -38 -25 0 -4 -9 -6 -20 -4 -11 2
-19 1 -16 -3 2 -4 -15 -17 -39 -28 -24 -11 -42 -17 -39 -13 2 4 -16 -4 -41
-17 -25 -14 -45 -23 -45 -20 0 4 -10 1 -23 -6 -12 -6 -29 -13 -37 -14 -8 -2
-16 -7 -18 -13 -2 -5 -10 -7 -18 -4 -8 3 -14 1 -14 -5 0 -5 -24 -16 -52 -22
-29 -7 -57 -15 -63 -19 -5 -3 -21 -7 -34 -9 -14 -2 -33 -8 -43 -13 -14 -8 -24
-7 -36 3 -9 7 -13 8 -9 2 4 -7 -4 -15 -21 -19 -15 -5 -31 -9 -37 -11 -5 -1
-35 -7 -65 -13 -30 -6 -66 -14 -80 -17 -14 -3 -32 -6 -40 -6 -8 0 -31 -4 -50
-9 -19 -4 -70 -10 -113 -13 -42 -3 -89 -8 -105 -12 -15 -3 -22 -2 -15 3 6 4
-49 8 -122 8 -73 0 -131 -4 -128 -9 3 -4 -7 -5 -23 -2 -16 3 -60 8 -99 11 -38
3 -90 10 -115 15 -25 6 -63 12 -85 14 -47 5 -172 31 -197 41 -10 4 -15 12 -11
19 4 8 3 8 -6 0 -14 -13 -67 -3 -145 27 -27 11 -57 19 -67 19 -11 0 -19 5 -19
11 0 6 -8 8 -19 4 -10 -3 -24 1 -31 10 -7 8 -17 12 -24 8 -7 -5 -7 -2 1 8 10
12 8 15 -7 15 -10 0 -16 -5 -13 -10 4 -5 -19 5 -50 21 -32 17 -55 28 -53 24 3
-4 -15 2 -39 13 -24 11 -41 24 -38 29 3 5 -1 7 -8 6 -20 -4 -101 40 -94 51 3
5 0 12 -6 16 -8 4 -9 3 -5 -4 10 -17 -6 -15 -34 5 -14 10 -27 16 -30 15 -2 -2
-7 5 -11 15 -4 10 -8 12 -8 5 -1 -7 -6 -10 -11 -7 -6 4 -8 10 -6 14 3 4 -5 7
-17 7 -15 -1 -22 4 -21 17 2 14 -1 15 -12 6 -12 -10 -13 -8 -8 7 6 15 4 17 -6
7 -9 -9 -19 -5 -41 18 -15 16 -35 29 -43 29 -9 0 -20 9 -26 21 -7 11 -14 18
-17 15 -3 -3 -12 2 -20 12 -10 11 -12 12 -8 2 4 -10 2 -9 -8 3 -8 9 -20 17
-26 17 -7 0 -9 5 -6 10 3 6 1 10 -5 10 -6 0 -8 4 -5 10 4 6 -1 7 -11 3 -10 -4
-15 -2 -11 3 3 6 -10 18 -29 29 -19 10 -34 22 -34 27 0 4 -7 8 -16 8 -8 0 -12
5 -9 10 4 6 11 7 17 4 7 -4 8 -2 4 5 -4 6 -11 9 -16 6 -11 -7 -61 35 -55 45 3
5 0 12 -6 16 -8 5 -9 3 -4 -7 5 -8 -12 6 -38 31 -26 25 -47 49 -47 55 0 5 5 3
11 -5 9 -13 10 -13 6 0 -2 8 -10 14 -17 12 -15 -4 -60 37 -60 54 0 7 -9 15
-19 19 -11 3 -29 21 -40 40 -11 19 -25 35 -30 35 -5 0 -7 10 -4 23 3 16 2 18
-5 8 -12 -16 -25 1 -16 22 3 8 1 18 -5 22 -7 4 -9 -1 -5 -12 7 -22 -35 25 -73
82 -15 22 -36 51 -47 64 -12 13 -15 20 -7 16 8 -5 2 7 -13 26 -15 19 -27 39
-27 44 0 6 -9 20 -21 32 -11 12 -18 26 -15 30 3 5 -3 16 -14 23 -10 8 -19 20
-19 27 0 8 -11 31 -24 52 -14 21 -22 42 -19 45 4 3 1 6 -6 6 -7 0 -10 4 -6 9
3 5 -2 17 -11 25 -9 9 -13 23 -10 31 3 8 2 15 -3 15 -10 0 -43 66 -48 94 -2
11 -8 26 -15 33 -6 7 -8 16 -5 20 4 3 3 11 -2 17 -14 18 -61 165 -64 199 -1 9
-5 17 -9 17 -4 0 -7 3 -6 8 1 4 -3 25 -10 47 -6 22 -11 51 -11 65 1 14 -6 49
-15 78 -14 47 -24 123 -31 222 -2 19 -6 78 -10 131 l-8 96 309 -1 308 -1 3
-45z m603 -1350 c0 -5 -2 -10 -4 -10 -3 0 -8 5 -11 10 -3 6 -1 10 4 10 6 0 11
-4 11 -10z m1423 -1197 c-7 -2 -19 -2 -25 0 -7 3 -2 5 12 5 14 0 19 -2 13 -5z"/>
<path d="M5451 2524 c0 -11 3 -14 6 -6 3 7 2 16 -1 19 -3 4 -6 -2 -5 -13z"/>
<path d="M4771 2074 c0 -11 3 -14 6 -6 3 7 2 16 -1 19 -3 4 -6 -2 -5 -13z"/>
<path d="M4706 1905 c-3 -9 -6 -22 -5 -28 0 -7 5 -1 10 12 5 13 8 26 5 28 -2
2 -6 -3 -10 -12z"/>
<path d="M5223 1655 c0 -8 4 -12 9 -9 5 3 6 10 3 15 -9 13 -12 11 -12 -6z"/>
<path d="M4450 1516 c0 -2 7 -7 16 -10 8 -3 12 -2 9 4 -6 10 -25 14 -25 6z"/>
<path d="M591 1400 c14 -31 19 -36 19 -24 0 6 -7 19 -16 30 -14 18 -14 18 -3
-6z"/>
<path d="M624 1369 c-3 -6 -2 -15 3 -20 5 -5 9 -1 9 11 0 23 -2 24 -12 9z"/>
<path d="M1311 1364 c0 -11 3 -14 6 -6 3 7 2 16 -1 19 -3 4 -6 -2 -5 -13z"/>
<path d="M1360 1346 c0 -2 8 -10 18 -17 15 -13 16 -12 3 4 -13 16 -21 21 -21
13z"/>
<path d="M4301 1296 c-9 -11 -9 -16 1 -22 7 -4 10 -4 6 1 -4 4 -3 14 3 22 6 7
9 13 6 13 -2 0 -10 -6 -16 -14z"/>
<path d="M676 1248 c3 -5 10 -6 15 -3 13 9 11 12 -6 12 -8 0 -12 -4 -9 -9z"/>
<path d="M690 1226 c0 -2 8 -10 18 -17 15 -13 16 -12 3 4 -13 16 -21 21 -21
13z"/>
<path d="M856 1008 c3 -5 10 -6 15 -3 13 9 11 12 -6 12 -8 0 -12 -4 -9 -9z"/>
<path d="M2187 799 c7 -7 15 -10 18 -7 3 3 -2 9 -12 12 -14 6 -15 5 -6 -5z"/>
<path d="M2520 710 c8 -5 20 -10 25 -10 6 0 3 5 -5 10 -8 5 -19 10 -25 10 -5
0 -3 -5 5 -10z"/>
<path d="M4485 690 c-3 -6 1 -7 9 -4 18 7 21 14 7 14 -6 0 -13 -4 -16 -10z"/>
<path d="M4326 593 c-6 -14 -5 -15 5 -6 7 7 10 15 7 18 -3 3 -9 -2 -12 -12z"/>
<path d="M1490 508 c0 -4 4 -8 9 -8 6 0 12 4 15 8 3 5 -1 9 -9 9 -8 0 -15 -4
-15 -9z"/>
<path d="M4114 446 c-10 -8 -17 -16 -14 -19 3 -2 14 4 24 14 23 22 18 25 -10
5z"/>
<path d="M3546 211 c-4 -5 3 -7 14 -4 23 6 26 13 6 13 -8 0 -17 -4 -20 -9z"/>
<path d="M2220 190 c-9 -6 -10 -10 -3 -10 6 0 15 5 18 10 8 12 4 12 -15 0z"/>
<path d="M4064 1795 c-4 -8 -11 -12 -17 -8 -6 3 -7 1 -3 -5 10 -16 14 -15 26
8 6 11 8 20 5 20 -3 0 -8 -7 -11 -15z"/>
<path d="M4480 1736 c0 -2 8 -10 18 -17 15 -13 16 -12 3 4 -13 16 -21 21 -21
13z"/>
<path d="M3960 1696 c0 -2 8 -10 18 -17 15 -13 16 -12 3 4 -13 16 -21 21 -21
13z"/>
<path d="M1819 1083 c-13 -16 -12 -17 4 -4 16 13 21 21 13 21 -2 0 -10 -8 -17
-17z"/>
<path d="M4705 791 c-3 -5 -2 -12 3 -15 5 -3 9 1 9 9 0 17 -3 19 -12 6z"/>
</g>
</svg>
